<svg width="24" height="20" viewBox="0 0 24 20" fill="none" xmlns="http://www.w3.org/2000/svg">
<path d="M1.64963 8.60997C8.0933 5.78776 12.3891 3.92701 14.537 3.02806C20.6768 0.461066 21.951 0.0152357 22.7832 0.000131604C22.9662 -0.00281976 23.3737 0.0426656 23.6396 0.25881C23.8606 0.4411 23.9228 0.687627 23.9538 0.860716C23.9815 1.03363 24.0194 1.42773 23.9884 1.73536C23.6569 5.24923 22.2169 13.7762 21.4848 17.712C21.1775 19.3772 20.5662 19.9356 19.9757 19.9901C18.6912 20.1088 17.7174 19.1373 16.4742 18.3182C14.5301 17.0359 13.4319 16.238 11.543 14.987C9.36062 13.5412 10.7764 12.7464 12.0196 11.4478C12.3442 11.1079 18.0005 5.93603 18.1076 5.46693C18.1214 5.40825 18.1352 5.1895 18.004 5.07423C17.8762 4.9586 17.6863 4.99819 17.5482 5.02944C17.3513 5.07388 14.2469 7.13914 8.22452 11.2249C7.34396 11.8339 6.54627 12.1308 5.828 12.1151C5.04067 12.0981 3.52127 11.6665 2.39207 11.2978C1.01079 10.8454 -0.0907762 10.6061 0.00591329 9.83773C0.054258 9.43774 0.603316 9.02837 1.64963 8.60997Z" fill="#17161B"/>
</svg>
