<svg width="24" height="16" viewBox="0 0 24 16" fill="none" xmlns="http://www.w3.org/2000/svg">
<path d="M23.5299 7.54344C23.4952 7.4675 22.674 5.64406 20.8599 3.83C18.4327 1.40656 15.3737 0.125 11.9987 0.125C8.62366 0.125 5.5646 1.40656 3.14022 3.83C1.32616 5.64406 0.504909 7.4675 0.467409 7.54344C0.403896 7.68743 0.371094 7.84309 0.371094 8.00047C0.371094 8.15785 0.403896 8.3135 0.467409 8.4575C0.502097 8.53438 1.32335 10.3569 3.13835 12.1709C5.5646 14.5944 8.62366 15.875 11.9987 15.875C15.3737 15.875 18.4327 14.5944 20.8562 12.1709C22.6712 10.3569 23.4924 8.53438 23.5271 8.4575C23.5911 8.3137 23.6243 8.15815 23.6248 8.00077C23.6253 7.84338 23.593 7.68763 23.5299 7.54344ZM19.2118 10.6372C17.199 12.6191 14.7727 13.625 11.9987 13.625C9.2246 13.625 6.79835 12.6191 4.78835 10.6362C3.99742 9.85365 3.31707 8.96671 2.76616 8C3.31723 7.03368 3.99757 6.14707 4.78835 5.36469C6.79928 3.38094 9.2246 2.375 11.9987 2.375C14.7727 2.375 17.198 3.38094 19.209 5.36469C19.9998 6.147 20.6802 7.03362 21.2312 8C20.6802 8.96665 19.9998 9.85358 19.209 10.6362L19.2118 10.6372ZM11.9987 3.875C11.1828 3.875 10.3853 4.11693 9.70693 4.57019C9.02858 5.02345 8.49987 5.66769 8.18766 6.42143C7.87545 7.17518 7.79376 8.00458 7.95292 8.80475C8.11208 9.60492 8.50495 10.3399 9.08184 10.9168C9.65874 11.4937 10.3937 11.8866 11.1939 12.0457C11.9941 12.2049 12.8235 12.1232 13.5772 11.811C14.331 11.4988 14.9752 10.9701 15.4285 10.2917C15.8817 9.61337 16.1237 8.81585 16.1237 8C16.1224 6.90636 15.6874 5.85787 14.9141 5.08455C14.1408 4.31124 13.0923 3.87624 11.9987 3.875ZM11.9987 9.875C11.6278 9.875 11.2653 9.76503 10.957 9.55901C10.6486 9.35298 10.4083 9.06014 10.2664 8.71753C10.1245 8.37492 10.0873 7.99792 10.1597 7.63421C10.232 7.27049 10.4106 6.9364 10.6728 6.67417C10.9351 6.41195 11.2692 6.23337 11.6329 6.16103C11.9966 6.08868 12.3736 6.12581 12.7162 6.26773C13.0588 6.40964 13.3516 6.64996 13.5577 6.95831C13.7637 7.26665 13.8737 7.62916 13.8737 8C13.8737 8.49728 13.6761 8.97419 13.3245 9.32582C12.9729 9.67746 12.4959 9.875 11.9987 9.875Z" fill="#96A1C5"/>
</svg>
