<svg width="22" height="12" viewBox="0 0 22 12" fill="none" xmlns="http://www.w3.org/2000/svg">
<path d="M20.9772 7.18763C21.051 7.31592 21.0989 7.4575 21.1181 7.60428C21.1372 7.75107 21.1273 7.90019 21.0888 8.04314C21.0503 8.18608 20.9841 8.32005 20.8938 8.43739C20.8036 8.55472 20.6911 8.65314 20.5628 8.72701C20.4345 8.80087 20.2929 8.84875 20.1461 8.86791C19.9994 8.88706 19.8502 8.87711 19.7073 8.83863C19.5643 8.80016 19.4304 8.7339 19.313 8.64365C19.1957 8.5534 19.0973 8.44092 19.0234 8.31263L17.4428 5.54701C16.5608 6.10185 15.6099 6.5387 14.6144 6.84638L15.1103 9.81263C15.1591 10.1069 15.089 10.4085 14.9155 10.6511C14.742 10.8937 14.4792 11.0575 14.185 11.1064C14.1231 11.1173 14.0603 11.1226 13.9975 11.1223C13.7318 11.1221 13.4748 11.0278 13.272 10.8562C13.0692 10.6846 12.9336 10.4468 12.8894 10.1848L12.4065 7.29732C11.47 7.40107 10.5249 7.40107 9.58842 7.29732L9.1103 10.1876C9.06596 10.4499 8.93014 10.688 8.72694 10.8596C8.52373 11.0312 8.26628 11.1253 8.0003 11.1251C7.93745 11.1254 7.87469 11.1201 7.8128 11.1092C7.66708 11.0847 7.52763 11.0316 7.4024 10.9532C7.27717 10.8748 7.16862 10.7724 7.08296 10.652C6.99729 10.5316 6.93618 10.3955 6.90313 10.2515C6.87007 10.1075 6.86571 9.95834 6.8903 9.81263L7.38623 6.83888C6.3907 6.5312 5.43979 6.09435 4.5578 5.53951L2.97717 8.31263C2.9033 8.44092 2.80489 8.5534 2.68755 8.64365C2.57021 8.7339 2.43625 8.80016 2.2933 8.83863C2.15036 8.87711 2.00124 8.88706 1.85445 8.86791C1.70766 8.84875 1.56608 8.80087 1.4378 8.72701C1.30951 8.65314 1.19703 8.55472 1.10678 8.43739C1.01653 8.32005 0.950272 8.18608 0.911794 8.04314C0.873316 7.90019 0.863369 7.75107 0.882522 7.60428C0.901675 7.4575 0.949553 7.31592 1.02342 7.18763L2.7503 4.17357C2.165 3.64501 1.62238 3.07103 1.12748 2.45701C0.952773 2.22399 0.875238 1.93229 0.911186 1.64328C0.947134 1.35426 1.09376 1.09045 1.32023 0.907335C1.54671 0.724216 1.83537 0.636059 2.1255 0.661409C2.41564 0.686758 2.68464 0.823638 2.87592 1.04326C4.37967 2.90513 7.0103 5.12513 11.0003 5.12513C14.9903 5.12513 17.6209 2.90513 19.1247 1.04326C19.3129 0.813366 19.5843 0.667247 19.8799 0.63679C20.1754 0.606333 20.471 0.69401 20.7021 0.880688C20.9332 1.06736 21.0811 1.33788 21.1135 1.63321C21.1459 1.92853 21.0601 2.22467 20.875 2.45701C20.3795 3.07111 19.8362 3.64508 19.2503 4.17357L20.9772 7.18763Z" fill="#96A1C5"/>
</svg>
