<svg width="194" height="74" viewBox="0 0 194 74" fill="none" xmlns="http://www.w3.org/2000/svg">
<g filter="url(#filter0_d_486_1023)">
<rect x="13" y="10" width="168" height="48" rx="14" fill="#F9F9FF" shape-rendering="crispEdges"/>
<path d="M48.8886 33.208C49.8646 33.416 50.6486 33.904 51.2406 34.672C51.8326 35.424 52.1286 36.288 52.1286 37.264C52.1286 38.672 51.6326 39.792 50.6406 40.624C49.6646 41.44 48.2966 41.848 46.5366 41.848H38.6886V28.288L35 25L46.2726 25C47.9846 25 49.3206 25.392 50.2806 26.176C51.2566 26.96 51.7446 28.024 51.7446 29.368C51.7446 30.36 51.4806 31.184 50.9526 31.84C50.4406 32.496 49.7526 32.952 48.8886 33.208ZM42.7926 31.816H45.4806C46.1526 31.816 46.6646 31.672 47.0166 31.384C47.3846 31.08 47.5686 30.64 47.5686 30.064C47.5686 29.488 47.3846 29.048 47.0166 28.744C46.6646 28.44 46.1526 28.288 45.4806 28.288H42.7926V31.816ZM45.8166 38.536C46.5046 38.536 47.0326 38.384 47.4006 38.08C47.7846 37.76 47.9766 37.304 47.9766 36.712C47.9766 36.12 47.7766 35.656 47.3766 35.32C46.9926 34.984 46.4566 34.816 45.7686 34.816H42.7926V38.536H45.8166Z" fill="#1B4CFB"/>
<path d="M61.7924 42.256C60.2084 42.256 58.7524 41.888 57.4244 41.152C56.1124 40.416 55.0644 39.392 54.2804 38.08C53.5124 36.752 53.1284 35.264 53.1284 33.616C53.1284 31.968 53.5124 30.488 54.2804 29.176C55.0644 27.864 56.1124 26.84 57.4244 26.104C58.7524 25.368 60.2084 25 61.7924 25C63.3764 25 64.8244 25.368 66.1364 26.104C67.4644 26.84 68.5044 27.864 69.2564 29.176C70.0244 30.488 70.4084 31.968 70.4084 33.616C70.4084 35.264 70.0244 36.752 69.2564 38.08C68.4884 39.392 67.4484 40.416 66.1364 41.152C64.8244 41.888 63.3764 42.256 61.7924 42.256ZM61.7924 38.512C63.1364 38.512 64.2084 38.064 65.0084 37.168C65.8244 36.272 66.2324 35.088 66.2324 33.616C66.2324 32.128 65.8244 30.944 65.0084 30.064C64.2084 29.168 63.1364 28.72 61.7924 28.72C60.4324 28.72 59.3444 29.16 58.5284 30.04C57.7284 30.92 57.3284 32.112 57.3284 33.616C57.3284 35.104 57.7284 36.296 58.5284 37.192C59.3444 38.072 60.4324 38.512 61.7924 38.512Z" fill="#1B4CFB"/>
<path d="M83.0116 42.088L79.5796 36.928L76.5556 42.088H71.8996L77.2996 33.52L71.7796 25.24H76.5556L79.9396 30.328L82.9156 25.24H87.5716L82.2196 33.736L87.7876 42.088H83.0116Z" fill="#1B4CFB"/>
<path d="M102.676 33.208C103.652 33.416 104.436 33.904 105.028 34.672C105.62 35.424 105.916 36.288 105.916 37.264C105.916 38.672 105.42 39.792 104.428 40.624C103.452 41.44 102.084 41.848 100.324 41.848H92.4762V28.288L88.7876 25L100.06 25C101.772 25 103.108 25.392 104.068 26.176C105.044 26.96 105.532 28.024 105.532 29.368C105.532 30.36 105.268 31.184 104.74 31.84C104.228 32.496 103.54 32.952 102.676 33.208ZM96.5802 31.816H99.2682C99.9402 31.816 100.452 31.672 100.804 31.384C101.172 31.08 101.356 30.64 101.356 30.064C101.356 29.488 101.172 29.048 100.804 28.744C100.452 28.44 99.9402 28.288 99.2682 28.288H96.5802V31.816ZM99.6042 38.536C100.292 38.536 100.82 38.384 101.188 38.08C101.572 37.76 101.764 37.304 101.764 36.712C101.764 36.12 101.564 35.656 101.164 35.32C100.78 34.984 100.244 34.816 99.5562 34.816H96.5802V38.536H99.6042Z" fill="#1B4CFB"/>
<path d="M111.021 25.24V42.088H106.917V25.24H111.021Z" fill="#1B4CFB"/>
<path d="M122.587 42.088L119.083 35.728H118.099V42.088H113.995V25.24H120.883C122.211 25.24 123.339 25.472 124.267 25.936C125.211 26.4 125.915 27.04 126.379 27.856C126.843 28.656 127.075 29.552 127.075 30.544C127.075 31.664 126.755 32.664 126.115 33.544C125.491 34.424 124.563 35.048 123.331 35.416L127.219 42.088H122.587ZM118.099 32.824H120.643C121.395 32.824 121.955 32.64 122.323 32.272C122.707 31.904 122.899 31.384 122.899 30.712C122.899 30.072 122.707 29.568 122.323 29.2C121.955 28.832 121.395 28.648 120.643 28.648H118.099V32.824Z" fill="#1B4CFB"/>
<path d="M135.963 25.24C137.739 25.24 139.291 25.592 140.619 26.296C141.947 27 142.971 27.992 143.691 29.272C144.427 30.536 144.795 32 144.795 33.664C144.795 35.312 144.427 36.776 143.691 38.056C142.971 39.336 141.939 40.328 140.595 41.032C139.267 41.736 137.723 42.088 135.963 42.088H129.651V25.24H135.963ZM135.699 38.536C137.251 38.536 138.459 38.112 139.323 37.264C140.187 36.416 140.619 35.216 140.619 33.664C140.619 32.112 140.187 30.904 139.323 30.04C138.459 29.176 137.251 28.744 135.699 28.744H133.755V38.536H135.699Z" fill="#1B4CFB"/>
<path d="M153.184 42.256C151.952 42.256 150.848 42.056 149.872 41.656C148.896 41.256 148.112 40.664 147.52 39.88C146.944 39.096 146.64 38.152 146.608 37.048H150.976C151.04 37.672 151.256 38.152 151.624 38.488C151.992 38.808 152.472 38.968 153.064 38.968C153.672 38.968 154.152 38.832 154.504 38.56C154.856 38.272 155.032 37.88 155.032 37.384C155.032 36.968 154.888 36.624 154.6 36.352C154.328 36.08 153.984 35.856 153.568 35.68C153.168 35.504 152.592 35.304 151.84 35.08C150.752 34.744 149.864 34.408 149.176 34.072C148.488 33.736 147.896 33.24 147.4 32.584C146.904 31.928 146.656 31.072 146.656 30.016C146.656 28.448 147.224 27.224 148.36 26.344C149.496 25.448 150.976 25 152.8 25C154.656 25 156.152 25.448 157.288 26.344C158.424 27.224 159.032 28.456 159.112 30.04H154.672C154.64 29.496 154.44 29.072 154.072 28.768C153.704 28.448 153.232 28.288 152.656 28.288C152.16 28.288 151.76 28.424 151.456 28.696C151.152 28.952 151 29.328 151 29.824C151 30.368 151.256 30.792 151.768 31.096C152.28 31.4 153.08 31.728 154.168 32.08C155.256 32.448 156.136 32.8 156.808 33.136C157.496 33.472 158.088 33.96 158.584 34.6C159.08 35.24 159.328 36.064 159.328 37.072C159.328 38.032 159.08 38.904 158.584 39.688C158.104 40.472 157.4 41.096 156.472 41.56C155.544 42.024 154.448 42.256 153.184 42.256Z" fill="#1B4CFB"/>
<rect x="13" y="10" width="168" height="48" rx="14" stroke="#1B4CFB" shape-rendering="crispEdges"/>
</g>
<defs>
<filter id="filter0_d_486_1023" x="0.5" y="0.5" width="193" height="73" filterUnits="userSpaceOnUse" color-interpolation-filters="sRGB">
<feFlood flood-opacity="0" result="BackgroundImageFix"/>
<feColorMatrix in="SourceAlpha" type="matrix" values="0 0 0 0 0 0 0 0 0 0 0 0 0 0 0 0 0 0 127 0" result="hardAlpha"/>
<feOffset dy="3"/>
<feGaussianBlur stdDeviation="6"/>
<feComposite in2="hardAlpha" operator="out"/>
<feColorMatrix type="matrix" values="0 0 0 0 0.883333 0 0 0 0 0.908854 0 0 0 0 1 0 0 0 1 0"/>
<feBlend mode="normal" in2="BackgroundImageFix" result="effect1_dropShadow_486_1023"/>
<feBlend mode="normal" in="SourceGraphic" in2="effect1_dropShadow_486_1023" result="shape"/>
</filter>
</defs>
</svg>
