<svg width="18" height="10" viewBox="0 0 18 10" fill="none" xmlns="http://www.w3.org/2000/svg">
<path d="M0.347437 0.342955C0.579321 0.114318 0.853872 -7.26116e-07 1.17109 -7.12361e-07C1.48831 -6.98606e-07 1.76255 0.114318 1.99381 0.342955L8.78802 7.04202L15.6054 0.320092C15.8218 0.106697 16.0924 -6.53561e-08 16.417 -5.12794e-08C16.7416 -3.72027e-08 17.0199 0.114319 17.2518 0.342956C17.4837 0.571593 17.5996 0.842299 17.5996 1.15507C17.5996 1.46785 17.4837 1.73825 17.2518 1.96628L9.43729 9.64849C9.34454 9.73994 9.24405 9.80487 9.13584 9.84328C9.02763 9.88169 8.91169 9.9006 8.78802 9.89999C8.66434 9.89999 8.5484 9.88078 8.44019 9.84237C8.33198 9.80396 8.23149 9.73933 8.13874 9.64849L0.324249 1.94341C0.107824 1.73002 -0.000389164 1.46693 -0.00038915 1.15416C-0.000389136 0.841383 0.115553 0.570982 0.347437 0.342955Z" fill="#1B4CFB"/>
</svg>
