<svg width="121" height="18" viewBox="0 0 121 18" fill="none" xmlns="http://www.w3.org/2000/svg">
<path d="M10.688 8.54359C11.664 8.75159 12.448 9.23959 13.04 10.0076C13.632 10.7596 13.928 11.6236 13.928 12.5996C13.928 14.0076 13.432 15.1276 12.44 15.9596C11.464 16.7756 10.096 17.1836 8.336 17.1836H0.488V0.335593H8.072C9.784 0.335593 11.12 0.727593 12.08 1.51159C13.056 2.29559 13.544 3.35959 13.544 4.70359C13.544 5.69559 13.28 6.51959 12.752 7.17559C12.24 7.83159 11.552 8.28759 10.688 8.54359ZM4.592 7.15159H7.28C7.952 7.15159 8.464 7.00759 8.816 6.71959C9.184 6.41559 9.368 5.97559 9.368 5.39959C9.368 4.82359 9.184 4.38359 8.816 4.07959C8.464 3.77559 7.952 3.62359 7.28 3.62359H4.592V7.15159ZM7.616 13.8716C8.304 13.8716 8.832 13.7196 9.2 13.4156C9.584 13.0956 9.776 12.6396 9.776 12.0476C9.776 11.4556 9.576 10.9916 9.176 10.6556C8.792 10.3196 8.256 10.1516 7.568 10.1516H4.592V13.8716H7.616ZM24.2763 17.3516C22.6923 17.3516 21.2363 16.9836 19.9083 16.2476C18.5963 15.5116 17.5483 14.4876 16.7643 13.1756C15.9963 11.8476 15.6123 10.3596 15.6123 8.71159C15.6123 7.06359 15.9963 5.58359 16.7643 4.27159C17.5483 2.95959 18.5963 1.93559 19.9083 1.19959C21.2363 0.463593 22.6923 0.0955935 24.2763 0.0955935C25.8603 0.0955935 27.3083 0.463593 28.6203 1.19959C29.9483 1.93559 30.9883 2.95959 31.7403 4.27159C32.5083 5.58359 32.8923 7.06359 32.8923 8.71159C32.8923 10.3596 32.5083 11.8476 31.7403 13.1756C30.9723 14.4876 29.9323 15.5116 28.6203 16.2476C27.3083 16.9836 25.8603 17.3516 24.2763 17.3516ZM24.2763 13.6076C25.6203 13.6076 26.6923 13.1596 27.4923 12.2636C28.3083 11.3676 28.7163 10.1836 28.7163 8.71159C28.7163 7.22359 28.3083 6.03959 27.4923 5.15959C26.6923 4.26359 25.6203 3.81559 24.2763 3.81559C22.9163 3.81559 21.8283 4.25559 21.0123 5.13559C20.2123 6.01559 19.8123 7.20759 19.8123 8.71159C19.8123 10.1996 20.2123 11.3916 21.0123 12.2876C21.8283 13.1676 22.9163 13.6076 24.2763 13.6076ZM45.4955 17.1836L42.0635 12.0236L39.0395 17.1836H34.3835L39.7835 8.61559L34.2635 0.335593H39.0395L42.4235 5.42359L45.3995 0.335593H50.0555L44.7035 8.83159L50.2715 17.1836H45.4955ZM62.5318 8.54359C63.5078 8.75159 64.2918 9.23959 64.8838 10.0076C65.4758 10.7596 65.7718 11.6236 65.7718 12.5996C65.7718 14.0076 65.2758 15.1276 64.2838 15.9596C63.3078 16.7756 61.9398 17.1836 60.1798 17.1836H52.3318V0.335593H59.9158C61.6278 0.335593 62.9638 0.727593 63.9238 1.51159C64.8998 2.29559 65.3878 3.35959 65.3878 4.70359C65.3878 5.69559 65.1238 6.51959 64.5958 7.17559C64.0838 7.83159 63.3958 8.28759 62.5318 8.54359ZM56.4358 7.15159H59.1238C59.7958 7.15159 60.3078 7.00759 60.6598 6.71959C61.0278 6.41559 61.2118 5.97559 61.2118 5.39959C61.2118 4.82359 61.0278 4.38359 60.6598 4.07959C60.3078 3.77559 59.7958 3.62359 59.1238 3.62359H56.4358V7.15159ZM59.4598 13.8716C60.1478 13.8716 60.6758 13.7196 61.0438 13.4156C61.4278 13.0956 61.6198 12.6396 61.6198 12.0476C61.6198 11.4556 61.4198 10.9916 61.0198 10.6556C60.6358 10.3196 60.0998 10.1516 59.4118 10.1516H56.4358V13.8716H59.4598ZM72.2561 0.335593V17.1836H68.1521V0.335593H72.2561ZM83.8222 17.1836L80.3182 10.8236H79.3342V17.1836H75.2302V0.335593H82.1182C83.4462 0.335593 84.5742 0.567593 85.5022 1.03159C86.4462 1.49559 87.1502 2.13559 87.6142 2.95159C88.0782 3.75159 88.3102 4.64759 88.3102 5.63959C88.3102 6.75959 87.9902 7.75959 87.3502 8.63959C86.7262 9.51959 85.7982 10.1436 84.5662 10.5116L88.4542 17.1836H83.8222ZM79.3342 7.91959H81.8782C82.6302 7.91959 83.1902 7.73559 83.5582 7.36759C83.9422 6.99959 84.1342 6.47959 84.1342 5.80759C84.1342 5.16759 83.9422 4.66359 83.5582 4.29559C83.1902 3.92759 82.6302 3.74359 81.8782 3.74359H79.3342V7.91959ZM97.1984 0.335593C98.9744 0.335593 100.526 0.687593 101.854 1.39159C103.182 2.09559 104.206 3.08759 104.926 4.36759C105.662 5.63159 106.03 7.09559 106.03 8.75959C106.03 10.4076 105.662 11.8716 104.926 13.1516C104.206 14.4316 103.174 15.4236 101.83 16.1276C100.502 16.8316 98.9584 17.1836 97.1984 17.1836H90.8864V0.335593H97.1984ZM96.9344 13.6316C98.4864 13.6316 99.6944 13.2076 100.558 12.3596C101.422 11.5116 101.854 10.3116 101.854 8.75959C101.854 7.20759 101.422 5.99959 100.558 5.13559C99.6944 4.27159 98.4864 3.83959 96.9344 3.83959H94.9904V13.6316H96.9344ZM114.42 17.3516C113.188 17.3516 112.084 17.1516 111.108 16.7516C110.132 16.3516 109.348 15.7596 108.756 14.9756C108.18 14.1916 107.876 13.2476 107.844 12.1436H112.212C112.276 12.7676 112.492 13.2476 112.86 13.5836C113.228 13.9036 113.708 14.0636 114.3 14.0636C114.908 14.0636 115.388 13.9276 115.74 13.6556C116.092 13.3676 116.268 12.9756 116.268 12.4796C116.268 12.0636 116.124 11.7196 115.836 11.4476C115.564 11.1756 115.22 10.9516 114.804 10.7756C114.404 10.5996 113.828 10.3996 113.076 10.1756C111.988 9.83959 111.1 9.50359 110.412 9.16759C109.724 8.83159 109.132 8.33559 108.636 7.67959C108.14 7.02359 107.892 6.16759 107.892 5.11159C107.892 3.54359 108.46 2.31959 109.596 1.43959C110.732 0.543593 112.212 0.0955935 114.036 0.0955935C115.892 0.0955935 117.388 0.543593 118.524 1.43959C119.66 2.31959 120.268 3.55159 120.348 5.13559H115.908C115.876 4.59159 115.676 4.16759 115.308 3.86359C114.94 3.54359 114.468 3.38359 113.892 3.38359C113.396 3.38359 112.996 3.51959 112.692 3.79159C112.388 4.04759 112.236 4.42359 112.236 4.91959C112.236 5.46359 112.492 5.88759 113.004 6.19159C113.516 6.49559 114.316 6.82359 115.404 7.17559C116.492 7.54359 117.372 7.89559 118.044 8.23159C118.732 8.56759 119.324 9.05559 119.82 9.69559C120.316 10.3356 120.564 11.1596 120.564 12.1676C120.564 13.1276 120.316 13.9996 119.82 14.7836C119.34 15.5676 118.636 16.1916 117.708 16.6556C116.78 17.1196 115.684 17.3516 114.42 17.3516Z" fill="#1B4CFB"/>
</svg>
