<svg width="28" height="22" viewBox="0 0 28 22" fill="none" xmlns="http://www.w3.org/2000/svg">
<path d="M6.77778 6.71429L12.1944 11C12.7068 11.4057 13.3436 11.6268 14 11.6268C14.6564 11.6268 15.2932 11.4057 15.8056 11L21.2222 6.71429M27 18.1429V3.85714C27 3.09938 26.6956 2.37266 26.1539 1.83684C25.6121 1.30102 24.8773 1 24.1111 1H3.88889C3.12271 1 2.38791 1.30102 1.84614 1.83684C1.30436 2.37266 1 3.09938 1 3.85714V18.1429C1 18.9006 1.30436 19.6273 1.84614 20.1632C2.38791 20.699 3.12271 21 3.88889 21H24.1111C24.8773 21 25.6121 20.699 26.1539 20.1632C26.6956 19.6273 27 18.9006 27 18.1429Z" stroke="#17161B" stroke-width="2" stroke-linecap="round" stroke-linejoin="round"/>
</svg>
